HIERARCHY
ROOT pelvis
{
  OFFSET 0 100 0
  CHANNELS 6 Xposition Yposition Zposition Zrotation Xrotation Yrotation
  JOINT pelvis_right_femur
  {
    OFFSET -10.78128 -3.44521 -0.5502486
    CHANNELS 3 Zrotation Xrotation Yrotation
    JOINT right_femur_tibia
    {
      OFFSET -0.8047443 -44.0398 -0.1307829
      CHANNELS 3 Zrotation Xrotation Yrotation
      JOINT right_tibia_foot
      {
        OFFSET 3.006224 -47.83518 -5
        CHANNELS 3 Zrotation Xrotation Yrotation
        End Site
        {
          OFFSET 0 -5 15
        }
      }
    }
  }
  JOINT pelvis_left_femur
  {
    OFFSET 10.78128 -3.44521 -0.5502486
    CHANNELS 3 Zrotation Xrotation Yrotation
    JOINT left_femur_tibia
    {
      OFFSET 0.8047443 -44.0398 -0.1307829
      CHANNELS 3 Zrotation Xrotation Yrotation
      JOINT left_tibia_foot
      {
        OFFSET -4.370144 -48.10324 -4.275266
        CHANNELS 3 Zrotation Xrotation Yrotation
        End Site
        {
          OFFSET 0 -5 15
        }
      }
    }
  }
  JOINT pelvis_spine1
  {
    OFFSET 0 6.468898 -3.129235
    CHANNELS 3 Zrotation Xrotation Yrotation
    JOINT spine1
    {
      OFFSET 0 23.15396 4.99043
      CHANNELS 3 Zrotation Xrotation Yrotation
      JOINT spine2
      {
        OFFSET 0 20.79997 -5.064912
        CHANNELS 3 Zrotation Xrotation Yrotation
        JOINT neck
        {
          OFFSET 0 14.38658 9.616178
          CHANNELS 3 Zrotation Xrotation Yrotation
          End Site
          {
            OFFSET 0 20 0
          }
        }
      }
      JOINT right_manubrium
      {
        OFFSET -5.722621 16.35077 3.967754
        CHANNELS 3 Zrotation Xrotation Yrotation
        JOINT right_clavicle
        {
          OFFSET -13.16364 1.694482 -4.693211
          CHANNELS 3 Zrotation Xrotation Yrotation
          JOINT right_humerus
          {
            OFFSET -28.5034 -0.3100689 -2.792744
            CHANNELS 3 Zrotation Xrotation Yrotation
            JOINT right_radius
            {
              OFFSET -25.15693 0.02248979 -1.271978
              CHANNELS 3 Zrotation Xrotation Yrotation
              End Site
              {
                OFFSET -15 0 0
              }
            }
          }
        }
      }
      JOINT left_manubrium
      {
        OFFSET 5.722621 16.35077 3.967754
        CHANNELS 3 Zrotation Xrotation Yrotation
        JOINT left_clavicle
        {
          OFFSET 13.16364 1.694482 -4.693211
          CHANNELS 3 Zrotation Xrotation Yrotation
          JOINT left_humerus
          {
            OFFSET 29.39168 -1.063119 -2.237045
            CHANNELS 3 Zrotation Xrotation Yrotation
            JOINT left_radius
            {
              OFFSET 24.59957 -0.9528479 0.9047498
              CHANNELS 3 Zrotation Xrotation Yrotation
              End Site
              {
                OFFSET 15 -0 -0
              }
            }
          }
        }
      }
    }
  }
}
MOTION
Frames: 7
Frame Time: 0.0416666666667
-1401.345 194.1187 152.4934 4.970757 25.52176 163.5542 4.333153 15.96993 -24.51282 -0 13.60466 -0 -25.15543 -4.652446 7.4739 -3.492093 10.17996 -20.73246 -0 13.09733 -0 -3.456269 -16.44727 26.49479 -1.998717 -5.722148 10.5387 0.4967954 13.13982 -6.991191 0.4093973 21.59956 4.827936 3.31547 -18.33708 5.677613 4.152756 -25.88899 10.71362 86.00807 31.59302 -18.68498 -0 0 23.82473 -8.265703 4.794781 0.6683582 6.905248 -25.1525 -2.885738 -98.82528 16.19951 35.01423 0 0 -5.30315 17.41259 15.63231 -1.422897
-1399.694 193.9595 147.0348 5.114882 25.43737 163.1152 4.254372 15.8663 -24.57005 -0 13.60459 -0 -25.19037 -4.592902 7.560871 -3.541721 10.28169 -20.76908 -0 12.99615 -0 -3.454595 -16.51168 26.42932 -1.987648 -5.709317 10.53057 0.5025379 13.1367 -7.002363 0.4223417 21.59434 4.817636 3.300562 -18.38387 5.696072 4.127259 -25.88959 10.71396 86.05762 31.59402 -18.7128 -0 0 23.80641 -8.250603 4.785116 0.6455316 6.896258 -25.13351 -2.871288 -98.81665 16.20625 35.00449 0 0 -5.302316 17.42352 15.64492 -1.454942
-1398.004 193.796 141.5916 5.250649 25.34963 162.6909 4.174646 15.72031 -24.63292 -0 13.57435 -0 -25.22464 -4.531949 7.648832 -3.590762 10.39892 -20.78827 -0 12.91881 -0 -3.425061 -16.57238 26.35495 -1.975802 -5.696167 10.52183 0.5091225 13.13338 -7.014854 0.4369913 21.58907 4.805703 3.28318 -18.43587 5.717114 4.099564 -25.89067 10.7141 86.11251 31.59458 -18.74483 -0 0 23.78633 -8.231987 4.77371 0.6197494 6.885786 -25.11185 -2.85494 -98.80937 16.21643 34.99613 0 0 -5.299942 17.43438 15.66027 -1.487175
-1396.276 193.6277 136.1634 5.379807 25.25951 162.2795 4.095834 15.5362 -24.69964 -0 13.51481 -0 -25.2571 -4.471834 7.735454 -3.638103 10.52831 -20.78991 -0 12.86596 -0 -3.368648 -16.62792 26.27366 -1.963489 -5.683033 10.5127 0.5163681 13.12995 -7.02833 0.4529679 21.58387 4.792463 3.263796 -18.49171 5.740198 4.070403 -25.89219 10.71404 86.17129 31.59473 -18.7802 -0 0 23.76501 -8.210365 4.760888 0.5917036 6.874124 -25.08809 -2.837104 -98.8036 16.22977 34.98929 0 0 -5.296119 17.44489 15.67794 -1.518791
-1394.512 193.4541 130.7497 5.504184 25.16792 161.8792 4.019677 15.31903 -24.76833 -0 13.42777 -0 -25.28673 -4.414462 7.818579 -3.682771 10.66627 -20.7743 -0 12.8379 -0 -3.286926 -16.67699 26.18755 -1.951024 -5.670239 10.50339 0.5240761 13.12648 -7.042431 0.4698649 21.57888 4.778279 3.242936 -18.54997 5.764739 4.040546 -25.89405 10.71378 86.2324 31.5945 -18.81798 -0 0 23.74297 -8.186335 4.747027 0.562138 6.86161 -25.06284 -2.818218 -98.79943 16.24591 34.98404 0 0 -5.291018 17.45483 15.69748 -1.549063
-1392.71 193.2748 125.3499 5.625644 25.07569 161.4879 3.947773 15.0745 -24.83708 -0 13.31588 -0 -25.31266 -4.361314 7.896285 -3.723938 10.80909 -20.74215 -0 12.83459 -0 -3.182001 -16.71847 26.09882 -1.938724 -5.658085 10.49411 0.5320376 13.12305 -7.056788 0.4872586 21.57419 4.763546 3.221172 -18.60919 5.79013 4.010776 -25.89616 10.71333 86.29428 31.59401 -18.85715 -0 0 23.72074 -8.160556 4.732545 0.5318236 6.848616 -25.03675 -2.798738 -98.79688 16.26444 34.98032 0 0 -5.284881 17.464 15.71837 -1.577351
-1390.871 193.0898 119.9633 5.74606 24.98366 161.1034 3.881562 14.80881 -24.90401 -0 13.18252 -0 -25.33426 -4.313421 7.966919 -3.76091 10.95305 -20.69451 -0 12.85571 -0 -3.056469 -16.75144 26.00968 -1.926895 -5.646846 10.48505 0.5400406 13.11973 -7.071033 0.5047195 21.56992 4.748669 3.19909 -18.66791 5.815752 3.981861 -25.8984 10.71269 86.35534 31.59334 -18.89672 -0 0 23.69882 -8.133731 4.717881 0.5015345 6.835531 -25.01049 -2.779126 -98.79591 16.28484 34.97804 0 0 -5.277998 17.47225 15.74006 -1.603111
